<svg height="512pt" viewBox="-21 0 511 512" width="512pt" xmlns="http://www.w3.org/2000/svg"><path d="m85.792969 356.601562c29.109375-17.972656 43.179687-46.523437 43.179687-46.523437s-42.457031 10.882813-67.742187-3.65625c-25.289063-14.542969-42.242188-28.980469-55.519531-16.335937-11.734376 11.175781-10.699219 55.855468 80.082031 66.515624zm0 0" fill="#f04424"/><path d="m384.890625 356.601562c-29.113281-17.972656-43.183594-46.523437-43.183594-46.523437s42.457031 10.882813 67.742188-3.65625c25.289062-14.542969 42.242187-28.980469 55.519531-16.335937 11.734375 11.175781 10.699219 55.855468-80.078125 66.515624zm0 0" fill="#f04424"/><path d="m235.339844 512c44.933594 0 31.34375-128.121094 31.34375-128.121094 53.632812 102.847656 106.128906 131.71875 124.9375 118.625 12.078125-8.410156 6.941406-26.5-5.050782-42.277344-11.988281-15.773437-67.339843-90.503906-67.339843-90.503906 99.082031 84.742188 143.886719 52 145.664062 36.882813 1.78125-15.121094-28.910156-27.824219-65.144531-42.445313-39.214844-15.820312-58.039062-54.078125-58.039062-54.078125 136.945312-159.554687 14.625-310.082031-106.371094-310.082031-120.992188 0-243.316406 150.527344-106.367188 310.078125 0 0-18.828125 38.261719-58.042968 54.082031-36.234376 14.617188-66.921876 27.324219-65.144532 42.441406 1.777344 15.121094 46.585938 47.863282 145.664063-36.878906 0 0-55.351563 74.726563-67.339844 90.503906-11.988281 15.773438-17.125 33.867188-5.046875 42.277344 18.804688 13.09375 71.300781-15.777344 124.933594-118.628906 0 .003906-13.589844 128.125 31.34375 128.125zm0 0" fill="#ff6930"/><path d="m85.792969 356.601562c29.109375-17.972656 43.179687-46.523437 43.179687-46.523437s-21.636718 5.546875-43.21875 3.429687c-8.148437 10.890626-21.363281 25.128907-39.851562 34.707032 10.816406 3.597656 23.964844 6.515625 39.890625 8.386718zm0 0" fill="#d83d24"/><path d="m384.890625 356.601562c-29.113281-17.972656-43.183594-46.523437-43.183594-46.523437s21.640625 5.546875 43.21875 3.429687c8.148438 10.890626 21.363281 25.128907 39.851563 34.707032-10.8125 3.597656-23.964844 6.515625-39.886719 8.386718zm0 0" fill="#d83d24"/><g fill="#ff5426"><path d="m8.125 412.304688c10.453125 15.390624 55.625 32.429687 143.324219-42.582032-8.664063-8.558594-22.136719-9.890625-32.304688-3.1875-44.269531 29.207032-87.554687 41.113282-111.019531 45.769532zm0 0"/><path d="m203.996094 383.878906c-13.089844-5.875-28.492188-1.285156-36.257813 10.78125-16.878906 26.230469-49.765625 71.011719-94.03125 101.511719 1.117188 2.449219 2.863281 4.597656 5.351563 6.332031 18.808594 13.09375 71.304687-15.777344 124.9375-118.625zm0 0"/><path d="m462.554688 412.304688c-10.453126 15.390624-55.625 32.429687-143.324219-42.582032 8.664062-8.558594 22.140625-9.890625 32.304687-3.1875 44.269532 29.207032 87.554688 41.113282 111.019532 45.769532zm0 0"/><path d="m266.683594 383.878906c13.089844-5.875 28.492187-1.285156 36.257812 10.78125 16.878906 26.230469 49.765625 71.011719 94.03125 101.511719-1.117187 2.449219-2.863281 4.597656-5.351562 6.332031-18.808594 13.09375-71.304688-15.777344-124.9375-118.625zm0 0"/><path d="m235.339844 474.503906c-24.699219 0-31.714844-29.335937-33.023438-64.199218-1.265625 37.507812 1.214844 101.695312 33.023438 101.695312s34.289062-64.1875 33.023437-101.695312c-1.308593 34.863281-8.324219 64.199218-33.023437 64.199218zm0 0"/></g><path d="m279.113281 257.925781c0-30.46875-19.597656-55.167969-43.773437-55.167969-24.175782 0-43.773438 24.699219-43.773438 55.167969s19.597656 55.167969 43.773438 55.167969c24.175781 0 43.773437-24.699219 43.773437-55.167969zm0 0" fill="#ffae8b"/><path d="m235.339844 284.96875c-20.316406 0-37.398438-17.449219-42.332032-41.105469-.9375 4.492188-1.441406 9.203125-1.441406 14.0625 0 30.46875 19.597656 55.167969 43.773438 55.167969 24.175781 0 43.773437-24.699219 43.773437-55.167969 0-4.859375-.503906-9.570312-1.441406-14.0625-4.933594 23.65625-22.015625 41.105469-42.332031 41.105469zm0 0" fill="#ff9568"/><path d="m153.191406 171.183594c-8.890625 0-15.855468 8.652344-15.855468 19.691406 0 11.042969 6.964843 19.695312 15.855468 19.695312s15.855469-8.652343 15.855469-19.695312c0-11.039062-6.964844-19.691406-15.855469-19.691406zm0 0" fill="#433f43"/><path d="m317.488281 171.183594c-8.890625 0-15.855469 8.652344-15.855469 19.691406 0 11.042969 6.964844 19.695312 15.855469 19.695312s15.855469-8.652343 15.855469-19.695312c0-11.039062-6.964844-19.691406-15.855469-19.691406zm0 0" fill="#433f43"/><path d="m235.339844 230.402344c-9.878906 0-16.777344 11.316406-16.777344 27.523437 0 16.203125 6.902344 27.519531 16.777344 27.519531 9.878906 0 16.777344-11.316406 16.777344-27.519531s-6.898438-27.523437-16.777344-27.523437zm0 0" fill="#f04424"/></svg>